<?xml version="1.0" encoding="UTF-8"?>
<svg width="1920" height="1080" viewBox="0 0 1920 1080" xmlns="http://www.w3.org/2000/svg">
    <!-- Background gradient -->
    <defs>
        <linearGradient id="bgGradient" x1="0%" y1="0%" x2="100%" y2="100%">
            <stop offset="0%" style="stop-color:#1a365d;stop-opacity:1" />
            <stop offset="100%" style="stop-color:#2c5282;stop-opacity:1" />
        </linearGradient>
        
        <!-- Grid pattern -->
        <pattern id="grid" width="50" height="50" patternUnits="userSpaceOnUse">
            <path d="M 50 0 L 0 0 0 50" fill="none" stroke="rgba(255,255,255,0.1)" stroke-width="0.5"/>
        </pattern>
        
        <!-- Topographic lines -->
        <pattern id="topo" width="200" height="200" patternUnits="userSpaceOnUse">
            <path d="M0,50 C50,30 150,70 200,50" fill="none" stroke="rgba(255,255,255,0.15)" stroke-width="0.5"/>
            <path d="M0,100 C50,80 150,120 200,100" fill="none" stroke="rgba(255,255,255,0.15)" stroke-width="0.5"/>
            <path d="M0,150 C50,130 150,170 200,150" fill="none" stroke="rgba(255,255,255,0.15)" stroke-width="0.5"/>
        </pattern>
    </defs>
    
    <!-- Base background -->
    <rect width="100%" height="100%" fill="url(#bgGradient)"/>
    
    <!-- Grid overlay -->
    <rect width="100%" height="100%" fill="url(#grid)"/>
    
    <!-- Topographic pattern overlay -->
    <rect width="100%" height="100%" fill="url(#topo)"/>
    
    <!-- Surveyor icon silhouette -->
    <g transform="translate(1600,800)" fill="rgba(255,255,255,0.1)">
        <path d="M-20,0 L20,0 L0,-80 Z" /> <!-- Tripod -->
        <circle cx="0" cy="-85" r="10" /> <!-- Instrument -->
    </g>
    
    <!-- Abstract geometric elements -->
    <g stroke="rgba(255,255,255,0.2)" stroke-width="1" fill="none">
        <path d="M100,900 L300,700 L500,800" />
        <path d="M1200,200 L1400,100 L1600,300" />
        <circle cx="300" cy="700" r="5" fill="rgba(255,255,255,0.3)" />
        <circle cx="1400" cy="100" r="5" fill="rgba(255,255,255,0.3)" />
    </g>
</svg>